<svg width="1280" height="720" viewBox="0 0 1280 720" fill="none" xmlns="http://www.w3.org/2000/svg">
  <defs>
    <linearGradient id="bg" x1="80" y1="40" x2="1160" y2="680" gradientUnits="userSpaceOnUse">
      <stop stop-color="#6D4CFF"/>
      <stop offset="1" stop-color="#0F1635"/>
    </linearGradient>
    <linearGradient id="card" x1="320" y1="120" x2="960" y2="600" gradientUnits="userSpaceOnUse">
      <stop stop-color="#131B3E"/>
      <stop offset="1" stop-color="#0C1229"/>
    </linearGradient>
    <linearGradient id="btn" x1="0" y1="0" x2="1" y2="1">
      <stop stop-color="#F472B6"/>
      <stop offset="1" stop-color="#60A5FA"/>
    </linearGradient>
    <filter id="shadow" x="0" y="0" width="1280" height="720" filterUnits="userSpaceOnUse" color-interpolation-filters="sRGB">
      <feDropShadow dx="0" dy="18" stdDeviation="28" flood-color="#000000" flood-opacity="0.28"/>
    </filter>
  </defs>

  <rect width="1280" height="720" rx="32" fill="url(#bg)"/>
  <circle cx="176" cy="118" r="120" fill="#F472B6" fill-opacity="0.16"/>
  <circle cx="1110" cy="156" r="140" fill="#22D3EE" fill-opacity="0.14"/>
  <circle cx="1020" cy="600" r="180" fill="#60A5FA" fill-opacity="0.10"/>

  <text x="88" y="126" fill="#FFFFFF" font-size="64" font-family="-apple-system,BlinkMacSystemFont,'Segoe UI',sans-serif" font-weight="800">漫咚咚</text>
  <text x="90" y="170" fill="#D5DBFF" font-size="26" font-family="-apple-system,BlinkMacSystemFont,'Segoe UI',sans-serif">ManDongDong · Authorized manga downloader</text>

  <g filter="url(#shadow)">
    <rect x="300" y="110" width="896" height="510" rx="26" fill="url(#card)" stroke="#334155"/>
  </g>

  <rect x="332" y="144" width="180" height="36" rx="10" fill="#1D284D"/>
  <rect x="530" y="144" width="180" height="36" rx="10" fill="#1D284D"/>
  <rect x="728" y="144" width="180" height="36" rx="10" fill="#1D284D"/>
  <rect x="926" y="144" width="200" height="36" rx="10" fill="#1D284D"/>

  <rect x="334" y="210" width="418" height="360" rx="20" fill="#10172F" stroke="#29354F"/>
  <rect x="776" y="210" width="386" height="360" rx="20" fill="#0C1329" stroke="#29354F"/>

  <text x="362" y="248" fill="#E5E7EB" font-size="24" font-family="-apple-system,BlinkMacSystemFont,'Segoe UI',sans-serif" font-weight="700">基本设置</text>
  <text x="802" y="248" fill="#E5E7EB" font-size="24" font-family="-apple-system,BlinkMacSystemFont,'Segoe UI',sans-serif" font-weight="700">运行日志</text>

  <rect x="362" y="270" width="362" height="42" rx="12" fill="#161F3D"/>
  <rect x="362" y="330" width="362" height="42" rx="12" fill="#161F3D"/>
  <rect x="362" y="390" width="172" height="42" rx="12" fill="#161F3D"/>
  <rect x="552" y="390" width="172" height="42" rx="12" fill="#161F3D"/>
  <rect x="362" y="452" width="362" height="88" rx="14" fill="#161F3D"/>

  <text x="376" y="298" fill="#94A3B8" font-size="18" font-family="-apple-system,BlinkMacSystemFont,'Segoe UI',sans-serif">URL</text>
  <text x="376" y="358" fill="#94A3B8" font-size="18" font-family="-apple-system,BlinkMacSystemFont,'Segoe UI',sans-serif">下载目录</text>
  <text x="376" y="418" fill="#94A3B8" font-size="18" font-family="-apple-system,BlinkMacSystemFont,'Segoe UI',sans-serif">标题</text>
  <text x="566" y="418" fill="#94A3B8" font-size="18" font-family="-apple-system,BlinkMacSystemFont,'Segoe UI',sans-serif">Referer</text>
  <text x="376" y="488" fill="#94A3B8" font-size="18" font-family="-apple-system,BlinkMacSystemFont,'Segoe UI',sans-serif">img_selector / page_link_selector</text>

  <rect x="802" y="274" width="334" height="22" rx="8" fill="#1B2648"/>
  <rect x="802" y="318" width="306" height="16" rx="8" fill="#1B2648"/>
  <rect x="802" y="356" width="322" height="16" rx="8" fill="#1B2648"/>
  <rect x="802" y="394" width="286" height="16" rx="8" fill="#1B2648"/>
  <rect x="802" y="432" width="318" height="16" rx="8" fill="#1B2648"/>
  <rect x="802" y="470" width="250" height="16" rx="8" fill="#1B2648"/>

  <rect x="334" y="590" width="180" height="44" rx="14" fill="url(#btn)"/>
  <rect x="530" y="590" width="180" height="44" rx="14" fill="#1E293B"/>
  <rect x="726" y="590" width="180" height="44" rx="14" fill="#1E293B"/>
  <text x="381" y="619" fill="#FFFFFF" font-size="20" font-family="-apple-system,BlinkMacSystemFont,'Segoe UI',sans-serif" font-weight="700">试跑预览</text>
  <text x="577" y="619" fill="#E2E8F0" font-size="20" font-family="-apple-system,BlinkMacSystemFont,'Segoe UI',sans-serif" font-weight="700">正式下载</text>
  <text x="773" y="619" fill="#E2E8F0" font-size="20" font-family="-apple-system,BlinkMacSystemFont,'Segoe UI',sans-serif" font-weight="700">停止当前任务</text>

  <g transform="translate(100,246)">
    <rect x="0" y="0" width="126" height="158" rx="18" fill="#F8FAFF"/>
    <rect x="16" y="18" width="92" height="24" rx="8" fill="#E8EEFF"/>
    <rect x="16" y="54" width="92" height="12" rx="6" fill="#D0DBFF"/>
    <rect x="16" y="76" width="92" height="12" rx="6" fill="#D0DBFF"/>
    <rect x="16" y="98" width="52" height="12" rx="6" fill="#D0DBFF"/>
    <path d="M98 38V116" stroke="#F472B6" stroke-width="16" stroke-linecap="round"/>
    <path d="M74 100H122L98 132L74 100Z" fill="#F472B6"/>
    <path d="M94 44V112" stroke="#22D3EE" stroke-width="4" stroke-linecap="round"/>
  </g>

  <text x="88" y="470" fill="#FFFFFF" font-size="32" font-family="-apple-system,BlinkMacSystemFont,'Segoe UI',sans-serif" font-weight="700">Native desktop GUI</text>
  <text x="88" y="510" fill="#D5DBFF" font-size="22" font-family="-apple-system,BlinkMacSystemFont,'Segoe UI',sans-serif">PySide6 + Scrapling · Windows one-file EXE ready</text>
  <text x="88" y="602" fill="#C7D2FE" font-size="20" font-family="-apple-system,BlinkMacSystemFont,'Segoe UI',sans-serif">Only for sources you are authorized to archive.</text>
</svg>
